<svg xml:space="preserve" viewBox="0 303.104 1024 444.416" width="1024" y="0px" x="0px" id="Layer_1" version="1.1" xmlns:xlink="http://www.w3.org/1999/xlink" xmlns="http://www.w3.org/2000/svg" style="max-height: 500px" height="444.416">
<path d="M746.094482,506.074097   C695.378845,562.816040 633.801025,600.295349 558.820190,613.838318   C508.748352,622.882263 459.605804,617.702759 411.839874,600.243347   C346.780914,576.462830 295.011871,535.253235 254.199692,479.682831   C251.199844,475.598267 251.320358,472.696991 254.190399,468.714081   C279.526825,433.552582 310.496185,404.387726 346.700989,380.629730   C383.167023,356.700348 422.861145,340.973694 465.873779,334.102570   C514.876587,326.274628 562.885437,331.103058 609.422852,348.250916   C674.161194,372.105377 726.050415,412.994263 766.795593,468.428619   C769.902588,472.655670 770.468079,475.687378 767.015686,480.129669   C760.266541,488.814117 753.478760,497.452759 746.094482,506.074097  M354.781464,556.678101   C389.395325,579.597534 435.421265,595.637939 449.331238,596.040527   C403.514465,568.795654 375.902100,529.472412 375.906952,474.454590   C375.911774,419.508026 403.442688,379.917816 450.794525,351.290039   C446.163025,352.234100 443.037842,352.671326 440.026276,353.514313   C371.000519,372.835327 315.834259,412.411346 271.845245,468.429840   C268.341675,472.891510 268.379395,475.946259 271.882996,480.467712   C295.068207,510.388672 322.585510,535.527771 354.781464,556.678101  M612.116760,384.402618   C668.772095,449.525909 653.881653,551.453369 571.364319,596.539429   C573.754700,596.159546 575.679260,595.887024 577.589783,595.537659   C578.732971,595.328613 579.861023,595.024841 580.984314,594.720825   C651.545471,575.625427 707.334717,535.055908 751.529541,477.554657   C753.771790,474.637299 752.536438,472.839417 750.854980,470.600586   C709.695740,415.796478 656.621765,377.651794 591.389160,356.503418   C588.225159,355.477661 585.024658,354.545227 581.800964,353.727936   C578.775635,352.960907 575.696899,352.404327 572.641663,351.755157   C587.345276,360.667877 600.332397,371.232452 612.116760,384.402618  M482.286926,354.835022   C407.723602,373.919617 366.048767,458.870331 403.196014,530.556213   C428.220459,578.847839 483.039429,605.713867 535.651550,594.388977   C598.251038,580.914307 640.534424,519.168518 630.820984,455.414429   C620.108765,385.104828 552.393250,338.893463 482.286926,354.835022  z" stroke="none" opacity="1.000000" fill="#cfbcf7"/>
<path d="M487.947754,711.972412   C485.216583,705.731506 481.784576,701.566833 474.242493,702.748535   C471.174438,703.229248 470.203674,704.105286 470.355743,706.988953   C470.504639,709.812134 470.404694,712.649963 470.373657,715.480896   C470.305573,721.685242 470.266754,721.708740 463.619476,721.056335   C462.223053,719.728516 462.704803,717.963928 462.699921,716.367188   C462.659393,703.043640 462.790527,689.718323 462.608765,676.397095   C462.554352,672.410950 463.648224,670.574768 467.930817,670.790283   C473.246613,671.057861 478.587463,670.778809 483.915710,670.857239   C492.629333,670.985535 498.105988,674.681580 500.471588,681.888489   C502.812622,689.020569 500.495911,695.071533 493.425781,700.352539   C492.907135,700.739868 492.477295,701.246033 491.650909,702.037109   C495.227844,708.149292 498.799469,714.252502 502.422424,720.443420   C495.648773,722.708496 494.144836,722.196655 491.007599,716.969360   C490.065033,715.398804 489.089386,713.848145 487.947754,711.972412  M470.568512,693.686707   C475.658112,697.473022 481.280670,695.835632 486.582489,694.777100   C491.398254,693.815552 493.286438,690.259094 492.732880,685.401489   C492.204987,680.769165 489.092163,678.799133 484.937592,678.424561   C481.304962,678.096924 477.621796,678.363281 473.962830,678.282837   C471.457306,678.227783 470.295380,679.300720 470.359802,681.853149   C470.452118,685.511719 470.419769,689.173462 470.568512,693.686707  z" stroke="none" opacity="1.000000" fill="#cfbcf7"/>
<path d="M593.803833,717.835205   C585.764954,723.464783 577.377380,723.645447 568.731018,720.911499   C563.973816,719.407227 560.892639,715.975464 559.191467,711.368713   C558.535339,709.591919 557.385376,707.287170 560.373718,706.467163   C562.511841,705.880554 564.718323,705.091248 566.367859,708.038818   C570.260498,714.994385 576.280457,717.075745 584.058289,714.520447   C587.082947,713.526672 589.460754,711.786621 589.643311,708.269409   C589.819824,704.869629 587.574036,703.041504 584.791748,702.066956   C580.566040,700.586853 576.219360,699.449158 571.915405,698.195801   C563.848694,695.846497 559.529907,690.735535 559.813416,683.835754   C560.103333,676.780273 565.051941,671.875183 573.470398,670.299133   C585.365234,668.072205 595.307190,674.119629 596.851135,684.716980   C593.371399,686.726440 590.754395,686.769043 588.351318,682.636108   C585.513611,677.755432 578.788757,675.923584 573.353638,677.891724   C570.528381,678.914856 568.385315,680.600220 568.219055,683.932373   C568.039673,687.525513 570.123962,689.557861 573.198730,690.544373   C578.099609,692.116699 583.230225,693.049622 588.010742,694.904724   C598.945557,699.147949 601.277100,708.316162 593.803833,717.835205  z" stroke="none" opacity="1.000000" fill="#cfbcf7"/>
<path d="M435.341614,681.040283   C435.336334,693.176331 435.318146,704.819763 435.335236,716.463135   C435.339111,719.093201 435.412415,721.422852 431.594971,721.411865   C427.927795,721.401306 427.658508,719.289978 427.664398,716.544861   C427.693329,703.071838 427.670776,689.598755 427.681976,676.125671   C427.684052,673.625732 427.330444,670.997681 431.200928,670.893860   C435.085602,670.789673 435.509094,673.069214 435.350311,676.057312   C435.270996,677.550049 435.339691,679.050598 435.341614,681.040283  z" stroke="none" opacity="1.000000" fill="#cfbcf7"/>
<path d="M525.719971,674.316528   C526.025452,670.647278 528.386475,670.954895 530.549622,671.086792   C532.989441,671.235657 533.342041,672.954956 533.340393,674.970154   C533.328857,689.094666 533.322571,703.219177 533.376221,717.343567   C533.385986,719.924500 532.652466,721.342834 529.721313,721.379211   C526.614624,721.417664 525.674561,720.016602 525.685669,717.153931   C525.740417,703.029663 525.704834,688.904968 525.719971,674.316528  z" stroke="none" opacity="1.000000" fill="#cfbcf7"/>
<path d="M614.926636,498.620850   C604.003662,542.740723 570.112854,574.266602 525.907715,581.015076   C485.615875,587.166138 442.049896,567.938049 419.233612,529.003418   C381.862335,465.231689 417.408264,384.040558 489.653778,368.280273   C546.121155,355.961975 604.007324,394.371948 615.295959,451.603149   C618.367188,467.173859 618.222351,482.697876 614.926636,498.620850  M444.864838,456.382141   C438.651642,459.859100 433.645782,464.558899 429.836487,470.623779   C428.411713,472.892151 428.199829,474.702515 429.716461,476.975769   C434.056976,483.481842 439.583130,488.574249 446.607544,492.069672   C449.619354,493.568390 451.921234,493.592682 454.459717,490.774689   C460.570160,483.991333 468.153320,479.319000 476.807129,476.289978   C479.136414,475.474670 481.896851,475.322357 483.937927,473.320953   C482.129822,471.593323 480.061890,471.434784 478.212250,470.866089   C469.647186,468.232635 461.656311,464.323303 455.661957,457.688019   C452.205078,453.861511 449.392914,453.523560 444.864838,456.382141  M594.464905,473.596680   C590.067871,464.725586 583.078369,458.657776 574.130066,454.653046   C571.903992,453.656769 570.314880,453.705933 568.488647,455.741302   C561.534363,463.491882 552.719849,468.317139 542.828003,471.313080   C541.311707,471.772278 539.590027,471.841003 538.265076,473.359589   C538.945557,473.754944 539.453369,474.212799 540.041016,474.367340   C551.388794,477.352112 561.449829,482.528778 569.187744,491.584259   C571.052002,493.765961 572.960815,493.064148 575.008789,492.167389   C583.533813,488.434509 590.044373,482.517334 594.464905,473.596680  M521.177307,397.333588   C519.946350,396.221954 518.658936,395.166199 517.494873,393.988434   C513.684021,390.132843 510.153564,390.200592 505.852417,393.696747   C500.430481,398.103943 496.249481,403.250610 493.296387,409.524536   C491.856659,412.583313 491.934204,414.920959 494.756683,417.408051   C501.639862,423.473389 506.004608,431.274353 509.013580,439.872345   C509.599426,441.546387 509.740723,443.463806 511.518829,444.649963   C511.860413,444.231323 512.319885,443.907318 512.439575,443.486603   C515.504395,432.709717 520.593384,423.177979 529.292175,415.836975   C531.028564,414.371613 530.624939,412.683502 529.862976,410.868286   C527.847961,406.067871 524.924622,401.857483 521.177307,397.333588  M513.211243,506.359344   C512.490723,505.113159 513.033203,503.289490 511.451691,502.438568   C510.433960,502.651001 510.117279,503.519440 509.921906,504.272766   C507.175323,514.863098 501.977692,523.955627 493.675568,531.189575   C491.618530,532.981995 492.262360,535.008545 493.198975,537.099060   C496.627228,544.751099 501.773926,550.850647 508.921661,555.346436   C511.211914,556.786926 512.850708,556.338562 514.781189,554.968384   C521.301025,550.340637 526.293884,544.480225 529.742554,537.241150   C531.089050,534.414673 530.836365,532.330933 528.353394,530.246094   C521.004211,524.075073 516.299438,516.146118 513.211243,506.359344  M566.527161,502.547852   C554.709045,502.945374 543.645813,499.936493 532.582214,493.950531   C532.813599,495.761139 532.735168,496.452728 532.994019,496.978210   C537.559082,506.246735 540.267273,515.907166 539.366516,526.358582   C539.160339,528.750427 540.609863,530.057312 542.553162,530.913818   C550.528381,534.428833 558.771973,535.718567 567.395569,533.842407   C568.741516,533.549622 570.211670,533.332275 570.475281,531.766602   C572.144714,521.847839 573.393555,511.951355 566.527161,502.547852  M486.645386,495.479187   C478.143372,500.027222 469.229584,503.036163 459.432159,502.336761   C455.998260,502.091675 454.309601,503.534912 453.313293,506.735870   C450.827484,514.722473 450.679047,522.726135 452.209229,530.891968   C452.674042,533.372375 454.061279,534.351562 456.220154,534.518372   C463.918701,535.113159 471.483459,534.775146 478.761902,531.666382   C481.764923,530.383789 483.066345,528.687744 482.961182,525.277100   C482.674408,515.976685 484.843933,507.145416 488.894806,498.763275   C489.487518,497.536743 490.839142,496.358887 489.611115,494.541901   C488.832886,494.768921 488.054199,494.996063 486.645386,495.479187  M543.548950,447.781219   C549.713806,445.574860 556.061462,444.272552 562.610962,444.753845   C566.284180,445.023712 568.121094,443.366943 569.278870,440.185974   C572.092102,432.456909 572.359680,424.618164 570.534485,416.655426   C570.136963,414.921265 569.378662,413.530701 567.355530,413.352570   C559.196228,412.634033 551.096985,412.373260 543.300659,415.650421   C540.509949,416.823456 539.152527,418.581451 539.292603,421.739929   C539.491089,426.214325 539.346863,430.673004 538.357971,435.117615   C536.858521,441.857056 533.532654,447.809143 530.207703,454.123169   C534.742371,451.941650 538.779541,449.999420 543.548950,447.781219  M480.696381,448.587799   C483.697754,449.854889 486.699158,451.121948 490.041077,452.532806   C490.041077,451.483948 490.209656,450.932678 490.016449,450.578979   C484.879303,441.172974 482.357971,431.147858 482.824982,420.414673   C482.944366,417.670746 481.004059,416.753265 478.993622,415.821655   C471.431580,412.317444 463.443909,412.838806 455.458313,413.295563   C453.145630,413.427856 452.486786,414.957489 452.106140,416.926331   C450.632812,424.546265 450.636078,432.062134 452.874023,439.589630   C453.986633,443.332001 455.822021,445.078186 459.963928,444.830017   C466.845459,444.417786 473.493500,445.998169 480.696381,448.587799  M548.672546,493.859955   C552.836487,494.656952 556.973450,496.885620 561.528687,494.658936   C556.341492,485.640350 537.342529,477.747955 528.489929,481.039185   C533.810791,487.408356 540.447693,491.122131 548.672546,493.859955  M524.453308,496.084808   C522.729553,494.265289 521.746765,491.507416 518.683044,491.214539   C515.882935,501.590912 523.914917,520.077698 532.469604,523.366089   C533.631592,514.189941 531.870483,508.017761 524.453308,496.084808  M466.380676,495.683624   C478.857513,493.927826 491.345642,486.871185 492.670197,480.828247   C483.217804,478.473053 464.540161,486.968903 461.219116,495.213928   C462.600952,496.015289 464.107513,495.743286 466.380676,495.683624  M464.827667,451.404694   C460.050476,451.801270 461.393402,453.918823 463.676208,455.948547   C470.083588,461.645538 477.781677,464.667114 486.079071,466.302826   C488.487305,466.777588 490.952057,467.121552 494.160706,465.487488   C486.242401,456.597809 476.410828,453.055939 464.827667,451.404694  M496.878418,498.397888   C491.962433,506.264954 489.299927,514.673889 490.133301,524.509827   C500.254364,516.603821 506.876068,499.897705 503.622833,491.011963   C500.556396,492.441437 499.159332,495.360596 496.878418,498.397888  M538.018738,457.490997   C534.697144,459.834625 530.859985,461.619751 528.892273,465.608490   C537.619446,468.625488 558.044434,459.823517 561.581360,451.539551   C553.218384,450.735168 545.780273,453.272980 538.018738,457.490997  M504.608154,454.210938   C504.819336,441.739075 499.730438,431.765900 490.559967,422.845947   C487.915649,432.674683 495.172791,450.623779 502.914276,454.950989   C503.241669,455.134003 503.826050,454.857361 504.608154,454.210938  M518.672241,445.319183   C518.245117,448.510101 517.367249,451.720795 518.744629,454.970856   C527.166077,451.217255 534.540039,433.244232 531.845764,423.133789   C524.864990,428.810822 521.163269,436.216003 518.672241,445.319183  M443.962494,509.625763   C444.568054,507.559204 445.101440,505.467834 445.801178,503.433685   C446.396454,501.703278 445.933655,500.647186 444.293823,499.832428   C440.925720,498.159027 437.620575,496.359039 434.138458,494.531921   C432.135010,497.437836 431.903564,500.593597 431.041046,503.571503   C430.040344,507.026459 431.392120,508.949097 434.228455,510.361969   C436.006073,511.247345 437.820374,512.058838 439.611267,512.917847   C442.317535,514.216003 443.698486,513.344238 443.962494,509.625763  M431.616089,447.768646   C432.484650,452.334290 434.502533,453.856415 438.633423,450.619843   C439.915802,449.615112 441.572601,449.098938 443.019501,448.290253   C444.317963,447.564545 445.941223,446.829193 445.543060,445.009064   C444.712250,441.211029 443.637329,437.466400 442.669647,433.726654   C431.724579,436.444916 430.037750,438.531281 431.616089,447.768646  M584.589905,450.700104   C585.932373,451.217621 587.064819,452.451355 588.695618,451.953094   C594.371887,440.983307 592.896545,437.335083 580.031799,433.954315   C579.591858,435.324585 579.133728,436.707764 578.703308,438.099548   C576.134399,446.406799 576.136536,446.407471 584.589905,450.700104  M549.310364,401.003204   C548.778381,399.968536 548.281799,398.913849 547.708496,397.902557   C544.565857,392.358856 538.820618,391.367096 533.808533,395.395630   C532.531860,396.421814 532.500427,397.405670 532.952637,398.859924   C535.886475,408.293823 537.472717,409.177612 546.670349,406.245911   C547.145508,406.094482 547.612732,405.904724 548.098267,405.801971   C550.842529,405.221161 550.416199,403.505005 549.310364,401.003204  M591.752319,505.998413   C591.739136,505.337006 591.773499,504.670685 591.705505,504.014954   C590.799805,495.271881 589.272461,494.409515 581.535645,498.242340   C579.928650,499.038483 578.312378,499.815979 576.403564,500.746796   C577.665466,505.185760 578.851868,509.359100 580.165405,513.979675   C584.686279,511.873077 589.212158,511.074127 591.752319,505.998413  M483.296906,393.447937   C478.202179,392.600952 474.743958,395.411011 473.123810,402.057831   C471.893890,407.103882 476.834137,405.391022 478.815887,406.918091   C479.569702,407.498993 480.643616,407.651093 481.546814,408.054291   C483.267059,408.822205 485.016571,408.901489 485.683563,406.904388   C486.894562,403.278534 490.595520,400.586182 489.747498,396.266235   C489.641815,395.728088 488.459717,395.323456 487.712830,395.006683   C486.501038,394.492767 485.236633,394.102783 483.296906,393.447937  M478.077209,540.729736   C476.320862,541.520752 474.114136,541.332214 472.809235,543.093323   C477.119019,555.346191 478.881378,557.295654 490.893738,550.243774   C488.991577,546.618347 487.092804,542.979919 485.161377,539.358887   C485.023560,539.100525 484.646545,538.969727 484.111816,538.587219   C482.449097,539.172546 480.611969,539.819336 478.077209,540.729736  M533.463745,551.707214   C544.559814,555.409241 548.367920,553.346741 550.042236,542.446899   C546.267212,541.149353 542.444336,539.835388 538.112061,538.346313   C536.976257,543.354187 532.195190,546.178406 533.463745,551.707214  z" stroke="none" opacity="1.000000" fill="#cfbcf7"/>
</svg>